<svg id="visual" viewBox="0 0 900 600" width="900" height="600" xmlns="http://www.w3.org/2000/svg" xmlns:xlink="http://www.w3.org/1999/xlink" version="1.1"><path d="M0 67L7.8 67C15.7 67 31.3 67 47.2 60C63 53 79 39 94.8 38C110.7 37 126.3 49 142 48C157.7 47 173.3 33 189.2 29C205 25 221 31 236.8 38C252.7 45 268.3 53 284.2 56C300 59 316 57 331.8 51C347.7 45 363.3 35 379 31C394.7 27 410.3 29 426.2 32C442 35 458 39 473.8 42C489.7 45 505.3 47 521 49C536.7 51 552.3 53 568.2 55C584 57 600 59 615.8 58C631.7 57 647.3 53 663.2 50C679 47 695 45 710.8 43C726.7 41 742.3 39 758 38C773.7 37 789.3 37 805.2 40C821 43 837 49 852.8 48C868.7 47 884.3 39 892.2 35L900 31L900 0L892.2 0C884.3 0 868.7 0 852.8 0C837 0 821 0 805.2 0C789.3 0 773.7 0 758 0C742.3 0 726.7 0 710.8 0C695 0 679 0 663.2 0C647.3 0 631.7 0 615.8 0C600 0 584 0 568.2 0C552.3 0 536.7 0 521 0C505.3 0 489.7 0 473.8 0C458 0 442 0 426.2 0C410.3 0 394.7 0 379 0C363.3 0 347.7 0 331.8 0C316 0 300 0 284.2 0C268.3 0 252.7 0 236.8 0C221 0 205 0 189.2 0C173.3 0 157.7 0 142 0C126.3 0 110.7 0 94.8 0C79 0 63 0 47.2 0C31.3 0 15.7 0 7.8 0L0 0Z" fill="#23102c"></path><path d="M0 133L7.8 134C15.7 135 31.3 137 47.2 131C63 125 79 111 94.8 111C110.7 111 126.3 125 142 124C157.7 123 173.3 107 189.2 95C205 83 221 75 236.8 73C252.7 71 268.3 75 284.2 84C300 93 316 107 331.8 113C347.7 119 363.3 117 379 110C394.7 103 410.3 91 426.2 82C442 73 458 67 473.8 75C489.7 83 505.3 105 521 116C536.7 127 552.3 127 568.2 126C584 125 600 123 615.8 124C631.7 125 647.3 129 663.2 123C679 117 695 101 710.8 99C726.7 97 742.3 109 758 113C773.7 117 789.3 113 805.2 113C821 113 837 117 852.8 109C868.7 101 884.3 81 892.2 71L900 61L900 29L892.2 33C884.3 37 868.7 45 852.8 46C837 47 821 41 805.2 38C789.3 35 773.7 35 758 36C742.3 37 726.7 39 710.8 41C695 43 679 45 663.2 48C647.3 51 631.7 55 615.8 56C600 57 584 55 568.2 53C552.3 51 536.7 49 521 47C505.3 45 489.7 43 473.8 40C458 37 442 33 426.2 30C410.3 27 394.7 25 379 29C363.3 33 347.7 43 331.8 49C316 55 300 57 284.2 54C268.3 51 252.7 43 236.8 36C221 29 205 23 189.2 27C173.3 31 157.7 45 142 46C126.3 47 110.7 35 94.8 36C79 37 63 51 47.2 58C31.3 65 15.7 65 7.8 65L0 65Z" fill="#4a2469"></path><path d="M0 199L7.8 193C15.7 187 31.3 175 47.2 163C63 151 79 139 94.8 146C110.7 153 126.3 179 142 178C157.7 177 173.3 149 189.2 134C205 119 221 117 236.8 118C252.7 119 268.3 123 284.2 130C300 137 316 147 331.8 156C347.7 165 363.3 173 379 168C394.7 163 410.3 145 426.2 134C442 123 458 119 473.8 132C489.7 145 505.3 175 521 181C536.7 187 552.3 169 568.2 166C584 163 600 175 615.8 185C631.7 195 647.3 203 663.2 205C679 207 695 203 710.8 196C726.7 189 742.3 179 758 178C773.7 177 789.3 185 805.2 183C821 181 837 169 852.8 159C868.7 149 884.3 141 892.2 137L900 133L900 59L892.2 69C884.3 79 868.7 99 852.8 107C837 115 821 111 805.2 111C789.3 111 773.7 115 758 111C742.3 107 726.7 95 710.8 97C695 99 679 115 663.2 121C647.3 127 631.7 123 615.8 122C600 121 584 123 568.2 124C552.3 125 536.7 125 521 114C505.3 103 489.7 81 473.8 73C458 65 442 71 426.2 80C410.3 89 394.7 101 379 108C363.3 115 347.7 117 331.8 111C316 105 300 91 284.2 82C268.3 73 252.7 69 236.8 71C221 73 205 81 189.2 93C173.3 105 157.7 121 142 122C126.3 123 110.7 109 94.8 109C79 109 63 123 47.2 129C31.3 135 15.7 133 7.8 132L0 131Z" fill="#6e3cb0"></path><path d="M0 253L7.8 248C15.7 243 31.3 233 47.2 219C63 205 79 187 94.8 194C110.7 201 126.3 233 142 231C157.7 229 173.3 193 189.2 173C205 153 221 149 236.8 152C252.7 155 268.3 165 284.2 177C300 189 316 203 331.8 207C347.7 211 363.3 205 379 203C394.7 201 410.3 203 426.2 202C442 201 458 197 473.8 200C489.7 203 505.3 213 521 213C536.7 213 552.3 203 568.2 203C584 203 600 213 615.8 225C631.7 237 647.3 251 663.2 250C679 249 695 233 710.8 225C726.7 217 742.3 217 758 217C773.7 217 789.3 217 805.2 217C821 217 837 217 852.8 212C868.7 207 884.3 197 892.2 192L900 187L900 131L892.2 135C884.3 139 868.7 147 852.8 157C837 167 821 179 805.2 181C789.3 183 773.7 175 758 176C742.3 177 726.7 187 710.8 194C695 201 679 205 663.2 203C647.3 201 631.7 193 615.8 183C600 173 584 161 568.2 164C552.3 167 536.7 185 521 179C505.3 173 489.7 143 473.8 130C458 117 442 121 426.2 132C410.3 143 394.7 161 379 166C363.3 171 347.7 163 331.8 154C316 145 300 135 284.2 128C268.3 121 252.7 117 236.8 116C221 115 205 117 189.2 132C173.3 147 157.7 175 142 176C126.3 177 110.7 151 94.8 144C79 137 63 149 47.2 161C31.3 173 15.7 185 7.8 191L0 197Z" fill="#8554ef"></path><path d="M0 355L7.8 353C15.7 351 31.3 347 47.2 339C63 331 79 319 94.8 315C110.7 311 126.3 315 142 304C157.7 293 173.3 267 189.2 251C205 235 221 229 236.8 238C252.7 247 268.3 271 284.2 279C300 287 316 279 331.8 271C347.7 263 363.3 255 379 252C394.7 249 410.3 251 426.2 261C442 271 458 289 473.8 291C489.7 293 505.3 279 521 277C536.7 275 552.3 285 568.2 293C584 301 600 307 615.8 315C631.7 323 647.3 333 663.2 329C679 325 695 307 710.8 294C726.7 281 742.3 273 758 279C773.7 285 789.3 305 805.2 303C821 301 837 277 852.8 272C868.7 267 884.3 281 892.2 288L900 295L900 185L892.2 190C884.3 195 868.7 205 852.8 210C837 215 821 215 805.2 215C789.3 215 773.7 215 758 215C742.3 215 726.7 215 710.8 223C695 231 679 247 663.2 248C647.3 249 631.7 235 615.8 223C600 211 584 201 568.2 201C552.3 201 536.7 211 521 211C505.3 211 489.7 201 473.8 198C458 195 442 199 426.2 200C410.3 201 394.7 199 379 201C363.3 203 347.7 209 331.8 205C316 201 300 187 284.2 175C268.3 163 252.7 153 236.8 150C221 147 205 151 189.2 171C173.3 191 157.7 227 142 229C126.3 231 110.7 199 94.8 192C79 185 63 203 47.2 217C31.3 231 15.7 241 7.8 246L0 251Z" fill="#8554ef"></path><path d="M0 397L7.8 396C15.7 395 31.3 393 47.2 388C63 383 79 375 94.8 367C110.7 359 126.3 351 142 336C157.7 321 173.3 299 189.2 281C205 263 221 249 236.8 258C252.7 267 268.3 299 284.2 310C300 321 316 311 331.8 304C347.7 297 363.3 293 379 288C394.7 283 410.3 277 426.2 284C442 291 458 311 473.8 314C489.7 317 505.3 303 521 305C536.7 307 552.3 325 568.2 339C584 353 600 363 615.8 370C631.7 377 647.3 381 663.2 375C679 369 695 353 710.8 337C726.7 321 742.3 305 758 308C773.7 311 789.3 333 805.2 336C821 339 837 323 852.8 318C868.7 313 884.3 319 892.2 322L900 325L900 293L892.2 286C884.3 279 868.7 265 852.8 270C837 275 821 299 805.2 301C789.3 303 773.7 283 758 277C742.3 271 726.7 279 710.8 292C695 305 679 323 663.2 327C647.3 331 631.7 321 615.8 313C600 305 584 299 568.2 291C552.3 283 536.7 273 521 275C505.3 277 489.7 291 473.8 289C458 287 442 269 426.2 259C410.3 249 394.7 247 379 250C363.3 253 347.7 261 331.8 269C316 277 300 285 284.2 277C268.3 269 252.7 245 236.8 236C221 227 205 233 189.2 249C173.3 265 157.7 291 142 302C126.3 313 110.7 309 94.8 313C79 317 63 329 47.2 337C31.3 345 15.7 349 7.8 351L0 353Z" fill="#6e3cb0"></path><path d="M0 445L7.8 454C15.7 463 31.3 481 47.2 489C63 497 79 495 94.8 485C110.7 475 126.3 457 142 459C157.7 461 173.3 483 189.2 486C205 489 221 473 236.8 455C252.7 437 268.3 417 284.2 415C300 413 316 429 331.8 431C347.7 433 363.3 421 379 407C394.7 393 410.3 377 426.2 384C442 391 458 421 473.8 437C489.7 453 505.3 455 521 457C536.7 459 552.3 461 568.2 463C584 465 600 467 615.8 475C631.7 483 647.3 497 663.2 506C679 515 695 519 710.8 499C726.7 479 742.3 435 758 418C773.7 401 789.3 411 805.2 425C821 439 837 457 852.8 468C868.7 479 884.3 483 892.2 485L900 487L900 323L892.2 320C884.3 317 868.7 311 852.8 316C837 321 821 337 805.2 334C789.3 331 773.7 309 758 306C742.3 303 726.7 319 710.8 335C695 351 679 367 663.2 373C647.3 379 631.7 375 615.8 368C600 361 584 351 568.2 337C552.3 323 536.7 305 521 303C505.3 301 489.7 315 473.8 312C458 309 442 289 426.2 282C410.3 275 394.7 281 379 286C363.3 291 347.7 295 331.8 302C316 309 300 319 284.2 308C268.3 297 252.7 265 236.8 256C221 247 205 261 189.2 279C173.3 297 157.7 319 142 334C126.3 349 110.7 357 94.8 365C79 373 63 381 47.2 386C31.3 391 15.7 393 7.8 394L0 395Z" fill="#4a2469"></path><path d="M0 601L7.8 601C15.7 601 31.3 601 47.2 601C63 601 79 601 94.8 601C110.7 601 126.3 601 142 601C157.7 601 173.3 601 189.2 601C205 601 221 601 236.8 601C252.7 601 268.3 601 284.2 601C300 601 316 601 331.8 601C347.7 601 363.3 601 379 601C394.7 601 410.3 601 426.2 601C442 601 458 601 473.8 601C489.7 601 505.3 601 521 601C536.7 601 552.3 601 568.2 601C584 601 600 601 615.8 601C631.7 601 647.3 601 663.2 601C679 601 695 601 710.8 601C726.7 601 742.3 601 758 601C773.7 601 789.3 601 805.2 601C821 601 837 601 852.8 601C868.7 601 884.3 601 892.2 601L900 601L900 485L892.2 483C884.3 481 868.7 477 852.8 466C837 455 821 437 805.2 423C789.3 409 773.7 399 758 416C742.3 433 726.7 477 710.8 497C695 517 679 513 663.2 504C647.3 495 631.7 481 615.8 473C600 465 584 463 568.2 461C552.3 459 536.7 457 521 455C505.3 453 489.7 451 473.8 435C458 419 442 389 426.2 382C410.3 375 394.7 391 379 405C363.3 419 347.7 431 331.8 429C316 427 300 411 284.2 413C268.3 415 252.7 435 236.8 453C221 471 205 487 189.2 484C173.3 481 157.7 459 142 457C126.3 455 110.7 473 94.8 483C79 493 63 495 47.2 487C31.3 479 15.7 461 7.8 452L0 443Z" fill="#23102c"></path></svg>